<?xml version="1.0" encoding="UTF-8" standalone="no"?>
<!DOCTYPE svg PUBLIC "-//W3C//DTD SVG 1.1//EN"
 "http://www.w3.org/Graphics/SVG/1.1/DTD/svg11.dtd">
<!-- Generated by graphviz version 2.40.1 (20161225.0304)
 -->
<!-- Title: dependencies Pages: 1 -->
<svg width="564pt" height="284pt"
 viewBox="0.00 0.00 564.00 284.00" xmlns="http://www.w3.org/2000/svg" xmlns:xlink="http://www.w3.org/1999/xlink">
<g id="graph0" class="graph" transform="scale(1 1) rotate(0) translate(4 280)">
<title>dependencies</title>
<polygon fill="#ffffff" stroke="transparent" points="-4,4 -4,-280 560,-280 560,4 -4,4"/>
<text text-anchor="start" x="257.0091" y="-42.4" font-family="sans-serif" font-weight="bold" font-size="14.00" fill="#000000">Legend</text>
<polygon fill="#ffffb3" stroke="transparent" points="44,-10 44,-30 64,-30 64,-10 44,-10"/>
<text text-anchor="start" x="67.629" y="-15.4" font-family="sans-serif" font-size="14.00" fill="#000000"> &#160;Declarations</text>
<polygon fill="#8dd3c7" stroke="transparent" points="157,-10 157,-30 177,-30 177,-10 157,-10"/>
<text text-anchor="start" x="180.7251" y="-15.4" font-family="sans-serif" font-size="14.00" fill="#000000"> &#160;Module</text>
<polygon fill="#80b1d3" stroke="transparent" points="243,-10 243,-30 263,-30 263,-10 243,-10"/>
<text text-anchor="start" x="266.7812" y="-15.4" font-family="sans-serif" font-size="14.00" fill="#000000"> &#160;Bootstrap</text>
<polygon fill="#fdb462" stroke="transparent" points="340,-10 340,-30 360,-30 360,-10 340,-10"/>
<text text-anchor="start" x="363.6732" y="-15.4" font-family="sans-serif" font-size="14.00" fill="#000000"> &#160;Providers</text>
<polygon fill="#fb8072" stroke="transparent" points="436,-10 436,-30 456,-30 456,-10 436,-10"/>
<text text-anchor="start" x="459.7258" y="-15.4" font-family="sans-serif" font-size="14.00" fill="#000000"> &#160;Exports</text>
<g id="clust7" class="cluster">
<title>cluster_MatMarkdownEditorModule</title>
<polygon fill="none" stroke="#000000" stroke-dasharray="1,5" points="8,-70 8,-268 548,-268 548,-70 8,-70"/>
</g>
<g id="clust8" class="cluster">
<title>cluster_MatMarkdownEditorModule_declarations</title>
<polygon fill="none" stroke="#000000" points="146,-78 146,-130 540,-130 540,-78 146,-78"/>
</g>
<g id="clust11" class="cluster">
<title>cluster_MatMarkdownEditorModule_imports</title>
<polygon fill="none" stroke="#000000" points="16,-78 16,-130 138,-130 138,-78 16,-78"/>
</g>
<g id="clust12" class="cluster">
<title>cluster_MatMarkdownEditorModule_exports</title>
<polygon fill="none" stroke="#000000" points="144,-208 144,-260 364,-260 364,-208 144,-208"/>
</g>
<!-- EditorToolbarComponent -->
<g id="node1" class="node">
<title>EditorToolbarComponent</title>
<polygon fill="#ffffb3" stroke="#000000" points="532.1456,-122 371.8544,-122 371.8544,-86 532.1456,-86 532.1456,-122"/>
<text text-anchor="middle" x="452" y="-99.8" font-family="Times,serif" font-size="14.00" fill="#000000">EditorToolbarComponent</text>
</g>
<!-- MatMarkdownEditorModule -->
<g id="node3" class="node">
<title>MatMarkdownEditorModule</title>
<polygon fill="#8dd3c7" stroke="#000000" points="343.021,-187 340.021,-191 319.021,-191 316.021,-187 164.979,-187 164.979,-151 343.021,-151 343.021,-187"/>
<text text-anchor="middle" x="254" y="-164.8" font-family="Times,serif" font-size="14.00" fill="#000000">MatMarkdownEditorModule</text>
</g>
<!-- EditorToolbarComponent&#45;&gt;MatMarkdownEditorModule -->
<g id="edge1" class="edge">
<title>EditorToolbarComponent&#45;&gt;MatMarkdownEditorModule</title>
<path fill="none" stroke="#000000" d="M452,-122.1061C452,-141.3391 452,-169 452,-169 452,-169 353.1532,-169 353.1532,-169"/>
<polygon fill="#000000" stroke="#000000" points="353.1532,-165.5001 343.1532,-169 353.1531,-172.5001 353.1532,-165.5001"/>
</g>
<!-- MatMarkdownEditorComponent -->
<g id="node2" class="node">
<title>MatMarkdownEditorComponent</title>
<polygon fill="#ffffb3" stroke="#000000" points="354.3032,-122 153.6968,-122 153.6968,-86 354.3032,-86 354.3032,-122"/>
<text text-anchor="middle" x="254" y="-99.8" font-family="Times,serif" font-size="14.00" fill="#000000">MatMarkdownEditorComponent</text>
</g>
<!-- MatMarkdownEditorComponent&#45;&gt;MatMarkdownEditorModule -->
<g id="edge2" class="edge">
<title>MatMarkdownEditorComponent&#45;&gt;MatMarkdownEditorModule</title>
<path fill="none" stroke="#000000" d="M254,-122.1061C254,-122.1061 254,-140.991 254,-140.991"/>
<polygon fill="#000000" stroke="#000000" points="250.5001,-140.9909 254,-150.991 257.5001,-140.991 250.5001,-140.9909"/>
</g>
<!-- MatMarkdownEditorComponent  -->
<g id="node5" class="node">
<title>MatMarkdownEditorComponent </title>
<polygon fill="#fb8072" stroke="#000000" points="355.8031,-252 152.1969,-252 152.1969,-216 355.8031,-216 355.8031,-252"/>
<text text-anchor="middle" x="254" y="-229.8" font-family="Times,serif" font-size="14.00" fill="#000000">MatMarkdownEditorComponent </text>
</g>
<!-- MatMarkdownEditorModule&#45;&gt;MatMarkdownEditorComponent  -->
<g id="edge4" class="edge">
<title>MatMarkdownEditorModule&#45;&gt;MatMarkdownEditorComponent </title>
<path fill="none" stroke="#000000" stroke-dasharray="5,2" d="M254,-187.1061C254,-187.1061 254,-205.991 254,-205.991"/>
<polygon fill="#000000" stroke="#000000" points="250.5001,-205.9909 254,-215.991 257.5001,-205.991 250.5001,-205.9909"/>
</g>
<!-- MaterialModule -->
<g id="node4" class="node">
<title>MaterialModule</title>
<polygon fill="#8dd3c7" stroke="#000000" points="130.4706,-122 127.4706,-126 106.4706,-126 103.4706,-122 23.5294,-122 23.5294,-86 130.4706,-86 130.4706,-122"/>
<text text-anchor="middle" x="77" y="-99.8" font-family="Times,serif" font-size="14.00" fill="#000000">MaterialModule</text>
</g>
<!-- MaterialModule&#45;&gt;MatMarkdownEditorModule -->
<g id="edge3" class="edge">
<title>MaterialModule&#45;&gt;MatMarkdownEditorModule</title>
<path fill="none" stroke="#000000" d="M77,-122.1061C77,-141.3391 77,-169 77,-169 77,-169 154.7222,-169 154.7222,-169"/>
<polygon fill="#000000" stroke="#000000" points="154.7222,-172.5001 164.7222,-169 154.7221,-165.5001 154.7222,-172.5001"/>
</g>
</g>
</svg>
